<svg xmlns="http://www.w3.org/2000/svg" style="display:none">
  <symbol id="icon-ai-threads" viewBox="0 0 24 24">
    <path d="M4.5 20.5V14.1731H19.5V20.5H4.5ZM9.14422 12.7884C7.85932 12.7884 6.76407 12.3356 5.85845 11.43C4.95282 10.5244 4.5 9.42911 4.5 8.14423C4.5 6.85933 4.95282 5.76407 5.85845 4.85845C6.76407 3.95282 7.85932 3.5 9.14422 3.5H14.8557C16.1406 3.5 17.2359 3.95282 18.1415 4.85845C19.0471 5.76407 19.5 6.85933 19.5 8.14423C19.5 9.42911 19.0471 10.5244 18.1415 11.43C17.2359 12.3356 16.1406 12.7884 14.8557 12.7884H9.14422ZM5.99997 19H18V15.673H5.99997V19ZM9.14422 11.2885H14.8557C15.7339 11.2885 16.4775 10.984 17.0865 10.375C17.6955 9.76602 18 9.02243 18 8.14423C18 7.26601 17.6955 6.52242 17.0865 5.91345C16.4775 5.30447 15.7339 4.99998 14.8557 4.99998H9.14422C8.26601 4.99998 7.52242 5.30447 6.91345 5.91345C6.30447 6.52242 5.99997 7.26601 5.99997 8.14423C5.99997 9.02243 6.30447 9.76602 6.91345 10.375C7.52242 10.984 8.26601 11.2885 9.14422 11.2885ZM9.14387 9.0096C9.38897 9.0096 9.59453 8.9267 9.76055 8.7609C9.92658 8.5951 10.0096 8.38965 10.0096 8.14455C10.0096 7.89947 9.9267 7.69391 9.7609 7.52788C9.5951 7.36186 9.38965 7.27885 9.14455 7.27885C8.89947 7.27885 8.69391 7.36175 8.52788 7.52755C8.36186 7.69335 8.27885 7.89879 8.27885 8.14388C8.27885 8.38898 8.36175 8.59453 8.52755 8.76055C8.69335 8.92658 8.89879 9.0096 9.14387 9.0096ZM14.8554 9.0096C15.1005 9.0096 15.306 8.9267 15.4721 8.7609C15.6381 8.5951 15.7211 8.38965 15.7211 8.14455C15.7211 7.89947 15.6382 7.69391 15.4724 7.52788C15.3066 7.36186 15.1012 7.27885 14.8561 7.27885C14.611 7.27885 14.4054 7.36175 14.2394 7.52755C14.0734 7.69335 13.9904 7.89879 13.9904 8.14388C13.9904 8.38898 14.0732 8.59453 14.239 8.76055C14.4048 8.92658 14.6103 9.0096 14.8554 9.0096Z" fill="currentColor" />

  </symbol>
  <symbol id="icon-assessment" viewBox="0 0 24 24">
    <path d="M15.7557 21L14.7115 19.9557L16.2865 18.3558L14.7115 16.7807L15.7557 15.7115L17.3558 17.3115L18.9307 15.7115L20 16.7807L18.4 18.3558L20 19.9557L18.9307 21L17.3558 19.425L15.7557 21ZM5.75 19.5C6.0975 19.5 6.39267 19.3785 6.6355 19.1355C6.8785 18.8927 7 18.5975 7 18.25C7 17.9025 6.8785 17.6073 6.6355 17.3645C6.39267 17.1215 6.0975 17 5.75 17C5.4025 17 5.10733 17.1215 4.8645 17.3645C4.6215 17.6073 4.5 17.9025 4.5 18.25C4.5 18.5975 4.6215 18.8927 4.8645 19.1355C5.10733 19.3785 5.4025 19.5 5.75 19.5ZM5.75 21C4.98717 21 4.33817 20.7323 3.803 20.197C3.26767 19.6618 3 19.0128 3 18.25C3 17.4872 3.26767 16.8382 3.803 16.303C4.33817 15.7677 4.98717 15.5 5.75 15.5C6.35383 15.5 6.89708 15.6773 7.37975 16.0318C7.86242 16.3863 8.19158 16.8552 8.36725 17.4385C9.08142 17.3128 9.67308 16.9737 10.1423 16.4212C10.6116 15.8686 10.8463 15.2282 10.8463 14.5V10.6443C10.8463 9.33142 11.3097 8.21158 12.2365 7.28475C13.1635 6.35775 14.2834 5.89425 15.5962 5.89425H17.1115L15.2865 4.06925L16.3558 3L20 6.64425L16.3558 10.2885L15.2865 9.24425L17.102 7.39425H15.5962C14.6924 7.39425 13.9248 7.70992 13.2933 8.34125C12.6619 8.97275 12.3462 9.74042 12.3462 10.6443V14.5C12.3462 15.6333 11.969 16.6208 11.2145 17.4625C10.46 18.3042 9.52117 18.8013 8.398 18.9538C8.243 19.5576 7.919 20.0496 7.426 20.4298C6.933 20.8099 6.37433 21 5.75 21ZM4.04425 9.2885L3 8.24425L4.575 6.64425L3 5.06925L4.04425 4L5.64425 5.6L7.21925 4L8.2885 5.06925L6.6885 6.64425L8.2885 8.24425L7.21925 9.2885L5.64425 7.7135L4.04425 9.2885Z" fill="currentColor" />

  </symbol>
  <symbol id="icon-chevron-down" viewBox="0 0 24 24">
    <path d="M12 16.7076L6.34619 11.0538L7.40002 10L12 14.6L16.6 10L17.6538 11.0538L12 16.7076Z" fill="currentColor" />

  </symbol>
  <symbol id="icon-expand" viewBox="0 0 24 24">
    <path d="M12 21.6538L6.34619 16L7.41539 14.9308L12 19.4962L16.5846 14.9308L17.6538 16L12 21.6538ZM7.43079 9.05384L6.34619 8.00002L12 2.34619L17.6538 8.00002L16.5692 9.05384L12 4.50384L7.43079 9.05384Z" fill="currentColor" />

  </symbol>
  <symbol id="icon-identification" viewBox="0 0 24 24">
    <path d="M12 21.4808C9.83717 20.891 8.0465 19.6179 6.628 17.6616C5.20933 15.7052 4.5 13.5181 4.5 11.1001V5.34632L12 2.53857L19.5 5.34632V11.0116C19.2667 10.9167 19.0218 10.8312 18.7653 10.7548C18.5089 10.6787 18.2538 10.6187 18 10.5751V6.39057L12 4.15007L6 6.39057V11.1001C6 11.9859 6.125 12.851 6.375 13.6953C6.625 14.5395 6.96958 15.3286 7.40875 16.0626C7.84775 16.7966 8.37242 17.4556 8.98275 18.0396C9.59292 18.6236 10.2551 19.0899 10.9692 19.4386L10.9983 19.4288C11.1303 19.7955 11.3013 20.1468 11.5115 20.4828C11.7218 20.8187 11.9609 21.1237 12.2287 21.3981C12.1866 21.4109 12.1485 21.4247 12.1145 21.4396C12.0805 21.4542 12.0423 21.468 12 21.4808ZM17 21.5001C15.7513 21.5001 14.6892 21.0622 13.8135 20.1866C12.9378 19.3109 12.5 18.2487 12.5 17.0001C12.5 15.7514 12.9378 14.6892 13.8135 13.8136C14.6892 12.9379 15.7513 12.5001 17 12.5001C18.2487 12.5001 19.3108 12.9379 20.1865 13.8136C21.0622 14.6892 21.5 15.7514 21.5 17.0001C21.5 18.2487 21.0622 19.3109 20.1865 20.1866C19.3108 21.0622 18.2487 21.5001 17 21.5001ZM16.5577 19.7501H17.4423V17.4423H19.75V16.5578H17.4423V14.2501H16.5577V16.5578H14.25V17.4423H16.5577V19.7501Z" fill="currentColor" />

  </symbol>
  <symbol id="icon-integrations" viewBox="0 0 24 24">
    <path d="M7.33655 21.5096L11.3558 14.2501L3.5 13.2981L15.125 2.49048H16.6827L12.6153 9.75968L20.5 10.702L8.87498 21.5096H7.33655ZM11.5307 16.9213L17.1327 11.8116L10.2346 10.9905L12.4731 7.075L6.86725 12.1943L13.7403 13.0289L11.5307 16.9213Z" fill="currentColor" />

  </symbol>
  <symbol id="icon-library" viewBox="0 0 24 24">
    <path d="M3.5 21.5V8.69225H2.5V2.5H21.5V8.69225H20.5V21.5H3.5ZM4.99998 20H19V8.69225H4.99998V20ZM3.99998 7.1923H20V3.99998H3.99998V7.1923ZM9.1923 13.4326H14.8077V12H9.1923V13.4326Z" fill="currentColor" />

  </symbol>
  <symbol id="icon-messaging" viewBox="0 0 24 24">
    <path d="M6.23081 17.1153V14.7307H18.6058L18.9231 15.0481V5.99998H21.3077V20.6537L17.7693 17.1153H6.23081ZM2.69238 16.2691V2.5H16.9231V12.7307H6.23081L2.69238 16.2691ZM15.4231 11.2308V3.99998H4.19236V11.9231L4.88471 11.2308H15.4231Z" fill="currentColor" />

  </symbol>
  <symbol id="icon-mitigation" viewBox="0 0 24 24">
    <path d="M10.95 15.2039L16.2538 9.90007L15.1846 8.83087L10.95 13.0655L8.83075 10.9462L7.76155 12.0154L10.95 15.2039ZM12 21.4808C9.83716 20.8911 8.04646 19.618 6.62787 17.6616C5.20929 15.7052 4.5 13.518 4.5 11.1001V5.34625L12 2.53857L19.5 5.34625V11.1001C19.5 13.518 18.7907 15.7052 17.3721 17.6616C15.9535 19.618 14.1628 20.8911 12 21.4808ZM12 19.9001C13.7333 19.3501 15.1666 18.2501 16.3 16.6001C17.4333 14.9501 18 13.1167 18 11.1001V6.37507L12 4.1347L5.99997 6.37507V11.1001C5.99997 13.1167 6.56664 14.9501 7.69997 16.6001C8.83331 18.2501 10.2666 19.3501 12 19.9001Z" fill="currentColor" />

  </symbol>
  <symbol id="icon-reporting" viewBox="0 0 24 24">
    <path d="M20.8406 20.9519L15.8617 15.973C15.1527 16.5384 14.397 16.9759 13.5944 17.2855C12.7918 17.5951 11.9111 17.75 10.9521 17.75C9.52904 17.75 8.23737 17.4073 7.07711 16.7221C5.91686 16.0368 4.99635 15.1295 4.31558 14H6.15978C6.74567 14.6872 7.44823 15.234 8.26748 15.6404C9.08672 16.0468 9.98159 16.25 10.9521 16.25C12.6829 16.25 14.1572 15.641 15.3752 14.4231C16.5931 13.2051 17.2021 11.7307 17.2021 9.99998C17.2021 8.26921 16.5931 6.79484 15.3752 5.57688C14.1572 4.35893 12.6829 3.74995 10.9521 3.74995C9.31492 3.74995 7.90146 4.30476 6.71171 5.41438C5.52196 6.52401 4.86042 7.88588 4.72708 9.49998H3.22713C3.36047 7.45383 4.16398 5.73396 5.63768 4.34038C7.1114 2.94679 8.88287 2.25 10.9521 2.25C13.1149 2.25 14.9473 3.00096 16.4492 4.50288C17.9511 6.00479 18.7021 7.83716 18.7021 9.99998C18.7021 10.959 18.5473 11.8413 18.2377 12.6471C17.928 13.4529 17.4905 14.2102 16.9252 14.9192L21.8944 19.8885L20.8406 20.9519ZM9.98288 13.8461L8.31171 8.30955L6.89633 12.3461H2.10596V11.1538H6.05788L7.70788 6.40383H8.98671L10.6175 11.8693L11.8271 8.15383H13.1059L14.6059 11.1538H15.3944V12.3461H13.8733L12.5733 9.7461L11.2367 13.8461H9.98288Z" fill="currentColor" />

  </symbol>
  <symbol id="icon-settings" viewBox="0 0 24 24">
    <path d="M9.69233 21.5L9.31156 18.4538C9.04361 18.3641 8.76892 18.2384 8.48751 18.0769C8.20609 17.9153 7.95448 17.7422 7.73268 17.5576L4.91153 18.7499L2.60388 14.75L5.04426 12.9058C5.02117 12.757 5.00482 12.6077 4.99521 12.4577C4.98559 12.3077 4.98078 12.1583 4.98078 12.0096C4.98078 11.8673 4.98559 11.7227 4.99521 11.5759C5.00482 11.4291 5.02117 11.2686 5.04426 11.0942L2.60388 9.24998L4.91153 5.26925L7.72306 6.45195C7.96409 6.26092 8.22147 6.08623 8.49518 5.9279C8.76892 5.76955 9.03783 5.6423 9.30193 5.54615L9.69233 2.5H14.3076L14.6884 5.55578C14.9884 5.66474 15.2599 5.79198 15.5029 5.9375C15.7458 6.08302 15.991 6.2545 16.2384 6.45195L19.0884 5.26925L21.3961 9.24998L18.9173 11.123C18.9532 11.2846 18.9727 11.4355 18.9759 11.5759C18.9791 11.7163 18.9807 11.8577 18.9807 12C18.9807 12.1359 18.9775 12.274 18.9711 12.4144C18.9647 12.5548 18.9416 12.7154 18.9019 12.8962L21.3615 14.75L19.0538 18.7499L16.2384 17.548C15.991 17.7455 15.7384 17.9201 15.4807 18.0721C15.223 18.224 14.9589 18.348 14.6884 18.4442L14.3076 21.5H9.69233ZM12.0115 15C12.8436 15 13.5516 14.708 14.1355 14.124C14.7195 13.54 15.0115 12.832 15.0115 12C15.0115 11.1679 14.7195 10.4599 14.1355 9.87595C13.5516 9.29198 12.8436 9 12.0115 9C11.1692 9 10.4587 9.29198 9.87981 9.87595C9.30097 10.4599 9.01156 11.1679 9.01156 12C9.01156 12.832 9.30097 13.54 9.87981 14.124C10.4587 14.708 11.1692 15 12.0115 15ZM12.0115 13.5C11.5948 13.5 11.2407 13.3541 10.949 13.0625C10.6573 12.7708 10.5115 12.4166 10.5115 12C10.5115 11.5833 10.6573 11.2291 10.949 10.9375C11.2407 10.6458 11.5948 10.5 12.0115 10.5C12.4282 10.5 12.7823 10.6458 13.074 10.9375C13.3657 11.2291 13.5115 11.5833 13.5115 12C13.5115 12.4166 13.3657 12.7708 13.074 13.0625C12.7823 13.3541 12.4282 13.5 12.0115 13.5ZM11 20H12.9654L13.325 17.3211C13.8352 17.1878 14.3016 16.9984 14.724 16.7529C15.1464 16.5074 15.5538 16.1917 15.9461 15.8058L18.4308 16.85L19.4154 15.15L17.2461 13.5154C17.3295 13.2564 17.3862 13.0025 17.4163 12.7538C17.4464 12.5051 17.4615 12.2538 17.4615 12C17.4615 11.7397 17.4464 11.4884 17.4163 11.2461C17.3862 11.0038 17.3295 10.7564 17.2461 10.5038L19.4346 8.84998L18.45 7.14998L15.9365 8.2096C15.6019 7.8519 15.2009 7.53588 14.7336 7.26153C14.2663 6.98716 13.7936 6.79293 13.3154 6.67883L13 3.99998H11.0154L10.6846 6.6692C10.1743 6.78972 9.70318 6.97433 9.27113 7.22305C8.83908 7.47177 8.42691 7.79228 8.03461 8.1846L5.54998 7.14998L4.56536 8.84998L6.72498 10.4596C6.64165 10.6968 6.58332 10.9436 6.54998 11.2C6.51665 11.4564 6.49998 11.7263 6.49998 12.0096C6.49998 12.2699 6.51665 12.525 6.54998 12.775C6.58332 13.025 6.63844 13.2718 6.71536 13.5154L4.56536 15.15L5.54998 16.85L8.02498 15.8C8.40447 16.1897 8.81023 16.509 9.24228 16.7577C9.67433 17.0064 10.1519 17.1974 10.675 17.3308L11 20Z" fill="currentColor" />

  </symbol>
  <symbol id="icon-star" viewBox="0 0 24 24">
    <path d="M12 2L15.09 8.26L22 9.27L17 14.14L18.18 21.02L12 17.77L5.82 21.02L7 14.14L2 9.27L8.91 8.26L12 2Z" fill="currentColor" />

  </symbol>
</svg>
